<svg width="512" height="512" viewBox="0 0 512 512" fill="none" xmlns="http://www.w3.org/2000/svg">
<g clip-path="url(#clip0_208_6)">
<path d="M384 0H128C57.3075 0 0 57.3075 0 128V384C0 454.692 57.3075 512 128 512H384C454.692 512 512 454.692 512 384V128C512 57.3075 454.692 0 384 0Z" fill="black"/>
<path d="M295.055 92.0912C297.835 91.7354 304.073 92.5423 308.206 92.4422C328.318 92.1154 348.43 92.0147 368.547 92.141C380.281 92.1381 393.693 91.6652 405.245 92.9815C410.853 93.6208 421.169 98.0843 425.999 101.095C440.726 110.276 450.963 125.691 454.869 142.464C459.849 163.955 456.019 186.548 444.231 205.189C435.942 218.332 422.212 228.936 406.998 232.513C406.688 232.586 406.464 232.859 406.461 233.178C405.968 274.963 406.74 317.354 406.8 359.17L406.829 392.31C406.829 398.173 407.652 411.647 405.205 417.526C405.181 417.583 405.152 417.634 405.109 417.679C404.569 418.247 402.896 418.91 402.214 418.804C396.624 417.914 391.568 417.993 385.953 417.993L124.833 418.983C122.067 419.015 119.97 419.023 117.266 418.81C117.098 418.797 116.939 418.721 116.824 418.598C113.224 414.712 112.727 410.931 112.691 405.828C112.611 394.384 113.106 382.993 113.107 371.55L113.424 272.668L113.46 245.97C113.49 242.114 113.821 236.908 113.615 233.136C113.598 232.833 113.38 232.581 113.084 232.513C102.886 230.161 94.2161 226.715 85.6565 220.587C70.2109 209.404 59.8268 192.544 56.7821 173.705C53.7539 154.841 59.7255 135.955 71.1236 120.793C82.0355 106.277 100.406 95.9095 118.262 92.9465C128.057 92.2018 139.102 92.5148 148.9 92.5532C153.886 92.5729 178.825 91.766 182.071 93.6129C182.173 93.6702 182.234 93.7578 182.277 93.8657C183.281 96.4085 181.7 99.8893 179.979 101.784C176.355 105.8 171.715 107.87 170.019 113.369C166.174 125.831 175.926 140.032 189.21 139.966C197.457 139.925 206.728 132.103 207.8 123.841C208.135 121.262 206.836 119.078 207.774 115.94C207.8 115.853 207.844 115.77 207.907 115.704C209.439 114.093 213.401 114.343 215.302 115.334C215.399 115.385 215.48 115.461 215.536 115.555C216.603 117.314 216.272 118.905 216.936 120.635C224.245 139.678 245.158 146.774 263.939 141.328C279.512 136.812 295.611 118.386 292.36 101.297C291.572 97.1453 286.284 92.4834 295.055 92.0912Z" fill="white"/>
</g>
<defs>
<clipPath id="clip0_208_6">
<rect width="512" height="512" fill="white"/>
</clipPath>
</defs>
</svg>
